<svg width="500" height="250" viewBox="0 0 500 250" fill="none" xmlns="http://www.w3.org/2000/svg">
<g clip-path="url(#clip0_1_6)">
<rect width="500" height="250" fill="white"/>
<g opacity="0.3">
<line x1="-11.2984" y1="182.202" x2="246.771" y2="182.202" stroke="black" stroke-width="3" stroke-linecap="round"/>
<line x1="271.831" y1="182.202" x2="362.831" y2="182.202" stroke="black" stroke-width="3" stroke-linecap="round"/>
<line x1="381.831" y1="182.202" x2="543.831" y2="182.202" stroke="black" stroke-width="3" stroke-linecap="round"/>
</g>
<path opacity="0.3" d="M125.677 207.408C125.677 205.622 125.325 203.854 124.642 202.204C123.958 200.555 122.957 199.056 121.694 197.793C120.431 196.53 118.932 195.529 117.283 194.845C115.633 194.162 113.865 193.81 112.079 193.81C110.293 193.81 108.525 194.162 106.875 194.845C105.226 195.529 103.726 196.53 102.464 197.793C101.201 199.056 100.2 200.555 99.5162 202.204C98.8328 203.854 98.4811 205.622 98.4811 207.408L125.677 207.408Z" fill="black"/>
<path opacity="0.3" d="M288.217 199.549C288.217 198.041 287.92 196.549 287.344 195.157C286.767 193.764 285.922 192.499 284.856 191.433C283.79 190.368 282.525 189.522 281.133 188.946C279.74 188.369 278.248 188.072 276.741 188.072C275.234 188.072 273.741 188.369 272.349 188.946C270.956 189.522 269.691 190.368 268.626 191.433C267.56 192.499 266.715 193.764 266.138 195.157C265.561 196.549 265.264 198.041 265.264 199.549L288.217 199.549Z" fill="black"/>
<path opacity="0.3" d="M429.948 215.365C429.948 213.857 429.651 212.365 429.074 210.973C428.498 209.58 427.652 208.315 426.587 207.249C425.521 206.184 424.256 205.338 422.863 204.762C421.471 204.185 419.979 203.888 418.471 203.888C416.964 203.888 415.472 204.185 414.08 204.762C412.687 205.338 411.422 206.184 410.356 207.249C409.291 208.315 408.445 209.58 407.868 210.973C407.292 212.365 406.995 213.857 406.995 215.365L429.948 215.365Z" fill="black"/>
<path opacity="0.3" d="M267.644 224.187C267.644 221.87 267.188 219.575 266.301 217.435C265.415 215.294 264.115 213.349 262.476 211.71C260.838 210.072 258.893 208.772 256.752 207.886C254.611 206.999 252.317 206.542 250 206.542C247.683 206.542 245.389 206.999 243.248 207.886C241.107 208.772 239.162 210.072 237.524 211.71C235.885 213.349 234.585 215.294 233.699 217.435C232.812 219.575 232.356 221.87 232.356 224.187L267.644 224.187Z" fill="black"/>
<g opacity="0.3">
<path d="M183.874 242.944C183.874 241.158 183.523 239.39 182.839 237.74C182.156 236.09 181.154 234.591 179.892 233.329C178.629 232.066 177.13 231.064 175.48 230.381C173.831 229.698 172.062 229.346 170.277 229.346C168.491 229.346 166.723 229.698 165.073 230.381C163.423 231.064 161.924 232.066 160.661 233.329C159.399 234.591 158.397 236.09 157.714 237.74C157.03 239.39 156.679 241.158 156.679 242.944L183.874 242.944Z" fill="black"/>
<path d="M206.398 242.944C206.398 240.481 205.913 238.041 204.97 235.766C204.028 233.49 202.646 231.422 200.904 229.681C199.162 227.939 197.095 226.557 194.819 225.615C192.543 224.672 190.104 224.187 187.641 224.187C185.178 224.187 182.739 224.672 180.463 225.615C178.187 226.557 176.12 227.939 174.378 229.681C172.636 231.422 171.254 233.49 170.312 235.766C169.369 238.041 168.884 240.481 168.884 242.944L206.398 242.944Z" fill="black"/>
</g>
<g opacity="0.3">
<path d="M361.808 231.287C361.808 229.502 361.456 227.733 360.773 226.084C360.089 224.434 359.088 222.935 357.825 221.672C356.562 220.41 355.063 219.408 353.414 218.725C351.764 218.041 349.996 217.689 348.21 217.689C346.424 217.689 344.656 218.041 343.006 218.725C341.356 219.408 339.857 220.41 338.595 221.672C337.332 222.935 336.33 224.434 335.647 226.084C334.964 227.733 334.612 229.502 334.612 231.287L361.808 231.287Z" fill="black"/>
<path d="M384.331 231.287C384.331 228.824 383.846 226.385 382.903 224.109C381.961 221.834 380.579 219.766 378.837 218.024C377.096 216.282 375.028 214.901 372.752 213.958C370.477 213.016 368.037 212.53 365.574 212.53C363.111 212.53 360.672 213.016 358.396 213.958C356.121 214.901 354.053 216.282 352.311 218.024C350.569 219.766 349.188 221.834 348.245 224.109C347.302 226.385 346.817 228.824 346.817 231.287L384.331 231.287Z" fill="black"/>
</g>
</g>
<defs>
<clipPath id="clip0_1_6">
<rect width="500" height="250" fill="white"/>
</clipPath>
</defs>
</svg>
