<svg width="68" height="66" viewBox="0 0 68 66" fill="none" xmlns="http://www.w3.org/2000/svg">
<path d="M54.7302 19.3277C54.9243 19.3271 55.1167 19.3648 55.2963 19.4388C55.4758 19.5127 55.6389 19.6214 55.7763 19.7586C55.9138 19.8958 56.0227 20.0588 56.0969 20.2382C56.1712 20.4176 56.2092 20.61 56.2089 20.8041V23.0095C56.2089 23.815 55.5636 24.4882 54.7302 24.4882C54.3389 24.4852 53.9646 24.3284 53.6879 24.0518C53.4112 23.7751 53.2545 23.4007 53.2514 23.0095V20.8041C53.2508 20.6098 53.2886 20.4172 53.3627 20.2375C53.4368 20.0578 53.5457 19.8946 53.6832 19.7571C53.8206 19.6197 53.9839 19.5108 54.1636 19.4367C54.3432 19.3626 54.5358 19.3248 54.7302 19.3254V19.3277Z" fill="black"/>
<path d="M20.0016 0.9188C18.7712 0.640228 17.4712 0.477728 16.148 0.500942C7.37303 0.596121 0.176606 7.7438 0.0605345 16.5188C0.00353032 20.412 1.3491 24.1957 3.85142 27.1788C2.88803 29.3749 2.38428 31.752 2.38196 34.1616V44.7009C2.38298 46.5001 2.76016 48.2793 3.48928 49.9241L9.32535 63.5602C9.55991 64.1407 9.96457 64.6368 10.4862 64.9831C11.0078 65.3295 11.622 65.51 12.248 65.5009H17.3087C18.1246 65.5036 18.91 65.1913 19.5013 64.629C20.0925 64.0668 20.4439 63.298 20.4821 62.4831C20.5053 61.9445 20.3893 61.4106 20.1478 60.9323L17.3621 54.4323L18.7875 53.007L21.5523 64.6188C21.6916 65.1295 22.1559 65.5009 22.6898 65.5009H27.6344C27.7675 65.5006 27.8987 65.4697 28.0179 65.4105C28.137 65.3514 28.241 65.2655 28.3216 65.1597C28.4022 65.2655 28.5061 65.3514 28.6253 65.4105C28.7445 65.4697 28.8757 65.5006 29.0087 65.5009H33.9534C34.4873 65.5009 34.9516 65.1295 35.0909 64.6188L37.1802 55.8438V62.2973C37.1808 63.1468 37.5185 63.9613 38.1191 64.5619C38.7198 65.1626 39.5343 65.5003 40.3837 65.5009H45.6069C46.4529 65.5034 47.2653 65.1702 47.8659 64.5744C48.4665 63.9786 48.8062 63.1688 48.8105 62.3229V48.8145C51.4693 48.0927 53.8157 46.514 55.4861 44.3231C57.1565 42.1323 58.0577 39.4516 58.0498 36.6966V35.0902C60.6821 34.552 63.0481 33.122 64.7482 31.0416C66.4484 28.9612 67.3787 26.3579 67.3819 23.6711V23.1604C67.3803 22.2333 67.0641 21.3342 66.4851 20.6102C65.9062 19.8862 65.0986 19.38 64.1946 19.1745C63.6696 16.9209 62.6386 14.8163 61.1799 13.0201C59.7211 11.2239 57.8728 9.78318 55.7748 8.80701V4.19433C55.7736 3.53054 55.5709 2.88275 55.1934 2.33668C54.816 1.79061 54.2817 1.372 53.6612 1.13622C53.0407 0.900444 52.3632 0.85862 51.7184 1.01628C51.0736 1.17394 50.4919 1.52366 50.0502 2.01916L40.653 12.4888C38.4167 14.9996 37.1779 18.2427 37.1709 21.605V23.2533L27.3907 18.4943C23.9107 16.8122 19.9701 16.3349 16.1891 17.1376C12.4081 17.9403 9.00129 19.9773 6.50481 22.9283C5.43991 21.2478 4.82737 19.3206 4.7266 17.3336C4.37839 10.6688 9.71767 5.1438 16.3105 5.1438C17.1927 5.1438 18.0748 5.23665 18.9105 5.44558C19.3776 5.54873 19.8651 5.5061 20.3072 5.32345C20.7493 5.14079 21.1248 4.82691 21.3828 4.42415C21.3898 4.41719 21.3945 4.41255 21.3945 4.40094C21.5988 4.0937 21.7254 3.74141 21.7634 3.37439C21.8014 3.00737 21.7497 2.63661 21.6127 2.29401C21.4756 1.95142 21.2574 1.64726 20.9767 1.4077C20.6961 1.16814 20.3615 1.00036 20.0016 0.9188V0.9188ZM28.3216 63.8295L24.8557 49.2509H31.7875L28.3216 63.8295V63.8295ZM15.895 62.7802L15.9414 62.8893C15.9224 62.8553 15.9069 62.8196 15.895 62.7825V62.7802ZM13.5736 61.6891C13.6039 61.7465 13.6295 61.8063 13.6502 61.8679L13.5736 61.6891ZM15.0709 60.8581H13.2137L7.74214 48.0577C7.26972 47.0025 7.02529 45.8594 7.02482 44.7032V34.164C7.02848 30.9676 8.22936 27.8886 10.3908 25.5338C12.5522 23.1791 15.5173 21.7194 18.7016 21.4425V26.9211C18.7016 28.1979 19.7462 29.2425 21.023 29.2425C22.2998 29.2425 23.3445 28.1979 23.3445 26.9211V21.8952C24.0382 22.0946 24.7139 22.3524 25.3641 22.6659L25.6427 22.8029V28.8479C25.6427 30.1247 26.6873 31.1693 27.9641 31.1693C29.2409 31.1693 30.2855 30.1247 30.2855 28.8479V25.0616L32.5605 26.169V30.7747C32.5605 32.0515 33.6052 33.0961 34.8819 33.0961C36.1587 33.0961 37.2034 32.0515 37.2034 30.7747V28.3302C37.7538 28.4635 38.3272 28.47 38.8805 28.3492C39.4338 28.2284 39.9523 27.9835 40.3971 27.6329C40.8418 27.2823 41.201 26.8352 41.4476 26.3254C41.6943 25.8157 41.8218 25.2565 41.8207 24.6902V23.7175H43.0069C44.2837 23.7175 45.3284 22.6729 45.3284 21.3961C45.3284 20.1193 44.2837 19.0747 43.0069 19.0747H42.1805C42.4181 18.2557 42.7698 17.4742 43.2252 16.7533H46.4891C47.7659 16.7533 48.8105 15.7086 48.8105 14.4318C48.8105 13.3802 48.1025 12.4865 47.1391 12.2033L51.1319 7.76701V12.3402L52.9334 12.7534C54.7097 13.346 56.2899 14.4137 57.5025 15.8407C58.7151 17.2677 59.5137 18.9995 59.8118 20.8483C59.9171 21.3719 60.1384 21.8653 60.4594 22.2922C60.4822 22.3535 60.5134 22.4114 60.5523 22.464L62.5719 25.18C62.2276 26.7323 61.3664 28.1217 60.1295 29.1208C58.8926 30.1198 57.3532 30.6694 55.7632 30.6795H52.4087C50.3357 30.6795 48.5203 31.8309 47.6452 33.5488L44.1677 39.2897V60.8581H41.823V48.0925H41.8462V39.155H29.8073C26.9496 39.155 24.2173 40.4086 22.3695 42.6116L18.9616 46.2632L13.7639 51.4632C13.1941 52.0272 12.8096 52.7514 12.6615 53.5393C12.5135 54.3273 12.6089 55.1416 12.9352 55.8739L15.0709 60.8581ZM23.6811 44.6081L24.1082 44.1484L24.1314 44.1252C24.8258 43.295 25.694 42.6274 26.6748 42.1697C27.6556 41.712 28.725 41.4753 29.8073 41.4765H39.5248V44.6104H23.6811V44.6081ZM51.3594 42.0197C50.091 43.4186 48.363 44.3164 46.4891 44.55V39.9374L49.6787 34.6724L49.7019 34.6306C49.9572 34.1343 50.3457 33.719 50.8238 33.4311C51.3019 33.1433 51.8507 32.9943 52.4087 33.0009H53.4069V36.692C53.4129 38.6611 52.6826 40.5614 51.3594 42.0197V42.0197Z" fill="black"/>
</svg>
