<svg width="61" height="63" viewBox="0 0 61 63" fill="none" xmlns="http://www.w3.org/2000/svg">
<path d="M27.7534 53.062H13.6567C13.1894 53.062 12.7412 52.8763 12.4108 52.5459C12.0803 52.2154 11.8947 51.7672 11.8947 51.2999C11.8947 50.8326 12.0803 50.3844 12.4108 50.0539C12.7412 49.7235 13.1894 49.5378 13.6567 49.5378H27.7534C28.2207 49.5378 28.6689 49.7235 28.9994 50.0539C29.3298 50.3844 29.5155 50.8326 29.5155 51.2999C29.5155 51.7672 29.3298 52.2154 28.9994 52.5459C28.6689 52.8763 28.2207 53.062 27.7534 53.062ZM46.5489 49.5378H39.5006C39.0333 49.5378 38.5851 49.7235 38.2546 50.0539C37.9242 50.3844 37.7385 50.8326 37.7385 51.2999C37.7385 51.7672 37.9242 52.2154 38.2546 52.5459C38.5851 52.8763 39.0333 53.062 39.5006 53.062H46.5489C47.0163 53.062 47.4644 52.8763 47.7949 52.5459C48.1254 52.2154 48.311 51.7672 48.311 51.2999C48.311 50.8326 48.1254 50.3844 47.7949 50.0539C47.4644 49.7235 47.0163 49.5378 46.5489 49.5378ZM39.5006 58.9356H23.0545C22.5872 58.9356 22.139 59.1212 21.8085 59.4517C21.4781 59.7821 21.2924 60.2303 21.2924 60.6977C21.2924 61.165 21.4781 61.6132 21.8085 61.9436C22.139 62.2741 22.5872 62.4597 23.0545 62.4597H39.5006C39.9679 62.4597 40.4161 62.2741 40.7466 61.9436C41.077 61.6132 41.2627 61.165 41.2627 60.6977C41.2627 60.2303 41.077 59.7821 40.7466 59.4517C40.4161 59.1212 39.9679 58.9356 39.5006 58.9356V58.9356ZM60.0582 21.9319C60.0504 27.6933 57.7583 33.2165 53.6844 37.2904C49.6105 41.3643 44.0873 43.6564 38.3259 43.6642H14.8315C10.937 43.6642 7.20209 42.1171 4.44831 39.3634C1.69452 36.6096 0.147461 32.8746 0.147461 28.9802C0.147461 25.0858 1.69452 21.3508 4.44831 18.597C7.20209 15.8433 10.937 14.2962 14.8315 14.2962C15.8482 14.3003 16.8617 14.4086 17.8564 14.6192C19.5771 9.79439 22.9469 5.73245 27.3709 3.15027C31.795 0.568084 36.989 -0.368346 42.0363 0.506238C47.0836 1.38082 51.6597 4.0102 54.9571 7.93034C58.2545 11.8505 60.0611 16.8094 60.0582 21.9319ZM56.534 21.9319C56.534 17.1028 54.6157 12.4715 51.201 9.05676C47.7863 5.64207 43.155 3.72371 38.3259 3.72371C33.4968 3.72371 28.8655 5.64207 25.4508 9.05676C22.0361 12.4715 20.1177 17.1028 20.1177 21.9319C20.1177 22.3992 19.9321 22.8474 19.6016 23.1779C19.2712 23.5083 18.823 23.694 18.3556 23.694C17.8883 23.694 17.4401 23.5083 17.1097 23.1779C16.7792 22.8474 16.5935 22.3992 16.5935 21.9319C16.5916 20.6219 16.7096 19.3144 16.946 18.0259C16.2501 17.8848 15.5415 17.8159 14.8315 17.8204C11.8717 17.8204 9.03314 18.9961 6.94027 21.089C4.84739 23.1819 3.67162 26.0204 3.67162 28.9802C3.67162 31.94 4.84739 34.7785 6.94027 36.8714C9.03314 38.9643 11.8717 40.14 14.8315 40.14H38.3259C43.1526 40.1323 47.7794 38.2114 51.1924 34.7984C54.6054 31.3854 56.5263 26.7586 56.534 21.9319V21.9319Z" fill="black"/>
</svg>
