<svg width="60" height="63" viewBox="0 0 60 63" fill="none" xmlns="http://www.w3.org/2000/svg">
<path d="M32.3041 53.0619H46.4007C46.8681 53.0619 47.3163 52.8763 47.6467 52.5458C47.9772 52.2154 48.1628 51.7672 48.1628 51.2999C48.1628 50.8325 47.9772 50.3843 47.6467 50.0539C47.3163 49.7234 46.8681 49.5378 46.4007 49.5378H32.3041C31.8368 49.5378 31.3886 49.7234 31.0581 50.0539C30.7277 50.3843 30.542 50.8325 30.542 51.2999C30.542 51.7672 30.7277 52.2154 31.0581 52.5458C31.3886 52.8763 31.8368 53.0619 32.3041 53.0619ZM13.5086 49.5378H20.5569C21.0242 49.5378 21.4724 49.7234 21.8029 50.0539C22.1333 50.3843 22.319 50.8325 22.319 51.2999C22.319 51.7672 22.1333 52.2154 21.8029 52.5458C21.4724 52.8763 21.0242 53.0619 20.5569 53.0619H13.5086C13.0412 53.0619 12.593 52.8763 12.2626 52.5458C11.9321 52.2154 11.7465 51.7672 11.7465 51.2999C11.7465 50.8325 11.9321 50.3843 12.2626 50.0539C12.593 49.7234 13.0412 49.5378 13.5086 49.5378ZM20.5569 58.9355H37.003C37.4703 58.9355 37.9185 59.1212 38.2489 59.4516C38.5794 59.7821 38.765 60.2303 38.765 60.6976C38.765 61.165 38.5794 61.6131 38.2489 61.9436C37.9185 62.2741 37.4703 62.4597 37.003 62.4597H20.5569C20.0895 62.4597 19.6414 62.2741 19.3109 61.9436C18.9804 61.6131 18.7948 61.165 18.7948 60.6976C18.7948 60.2303 18.9804 59.7821 19.3109 59.4516C19.6414 59.1212 20.0895 58.9355 20.5569 58.9355V58.9355ZM-0.000727892 21.9318C0.00704203 27.6932 2.29919 33.2164 6.37311 37.2903C10.447 41.3643 15.9702 43.6564 21.7316 43.6642H45.226C49.1205 43.6642 52.8554 42.1171 55.6092 39.3633C58.363 36.6095 59.91 32.8746 59.91 28.9802C59.91 25.0857 58.363 21.3508 55.6092 18.597C52.8554 15.8432 49.1205 14.2962 45.226 14.2962C44.2093 14.3003 43.1957 14.4085 42.2011 14.6192C40.4804 9.79436 37.1106 5.73242 32.6865 3.15024C28.2625 0.568053 23.0685 -0.368376 18.0212 0.506208C12.9739 1.38079 8.39773 4.01017 5.10036 7.93031C1.80299 11.8504 -0.00365176 16.8093 -0.000727892 21.9318ZM3.52343 21.9318C3.52343 17.1027 5.44179 12.4714 8.85648 9.05673C12.2712 5.64204 16.9025 3.72368 21.7316 3.72368C26.5607 3.72368 31.192 5.64204 34.6067 9.05673C38.0214 12.4714 39.9398 17.1027 39.9398 21.9318C39.9398 22.3992 40.1254 22.8474 40.4559 23.1778C40.7863 23.5083 41.2345 23.6939 41.7019 23.6939C42.1692 23.6939 42.6174 23.5083 42.9478 23.1778C43.2783 22.8474 43.4639 22.3992 43.4639 21.9318C43.4659 20.6218 43.3479 19.3144 43.1115 18.0259C43.8074 17.8847 44.516 17.8158 45.226 17.8203C48.1858 17.8203 51.0243 18.9961 53.1172 21.089C55.2101 23.1818 56.3859 26.0204 56.3859 28.9802C56.3859 31.9399 55.2101 34.7785 53.1172 36.8714C51.0243 38.9642 48.1858 40.14 45.226 40.14H21.7316C16.9049 40.1322 12.2781 38.2114 8.86506 34.7984C5.45205 31.3854 3.5312 26.7586 3.52343 21.9318V21.9318Z" fill="black"/>
</svg>
