<svg width="55" height="55" viewBox="0 0 55 55" fill="none" xmlns="http://www.w3.org/2000/svg">
<path d="M42.0991 14.0739L34.8208 14.6529L27.8394 20.3214L31.9164 22.6924L42.5326 16.0487L42.7861 15.2452L42.0991 14.0739Z" fill="#CA2C31"/>
<path d="M35.2252 16.1943L42.8 15.2825L41.6124 19.748L35.0529 22.4098L33.9049 21.4162L30.4332 20.1163L35.2252 16.1943ZM33.3135 32.2111L35.9939 30.9235L41.8065 32.5487C41.8065 32.5487 44.1188 37.5472 44.0522 37.6242C43.9855 37.7012 43.2189 38.7425 43.2189 38.7425L36.3446 38.8546L28.968 34.0025L33.3135 32.2111V32.2111Z" fill="#A02422"/>
<path d="M38.1215 32.828C38.1215 32.828 36.8945 33.7739 35.7964 34.2547C34.6983 34.7356 33.241 35.2423 33.241 35.2423L36.794 37.6691L44.0515 37.6152C44.0515 37.6152 43.9987 37.3211 43.2102 35.5863C42.5802 34.2034 42.3509 33.7144 42.3509 33.7144L38.1215 32.828V32.828Z" fill="#CA2C31"/>
<path d="M38.4555 22.627C38.4555 22.627 39.5356 21.1456 42.7592 21.2878C45.702 21.4186 49.1071 23.2332 50.0553 23.6162C51.0036 23.9991 51.6715 23.529 51.8331 24.0183C51.9948 24.5076 51.2277 25.3549 50.1726 26.3065C49.1175 27.2581 47.9914 27.8831 47.9914 27.8831C47.9914 27.8831 48.1465 27.9374 48.5301 28C48.6671 28.0217 48.9613 27.9395 49.0811 28.0685C49.3673 28.3751 47.0374 31.0817 42.9521 31.3176C38.5411 31.5747 37.5562 28.7438 37.5562 28.7438L38.4555 22.627Z" fill="#F7D74D"/>
<path d="M39.2095 24.0078C39.2095 24.0078 40.5783 22.5868 43.5581 23.0105C46.5379 23.4343 49.2502 24.7799 49.2973 25.027C49.3466 25.2716 46.5291 26.849 46.2182 27.5439C46.0067 28.0217 46.5581 28.158 46.5717 28.3465C46.583 28.5037 45.8626 29.6229 42.7198 29.7232C39.5748 29.8258 37.4512 27.3185 37.4512 27.3185L39.2095 24.0078V24.0078Z" fill="#FBF0B4"/>
<path d="M35.965 22.4794C35.965 22.4794 37.2795 22.3079 37.8934 22.372C38.5072 22.436 38.5409 22.4652 38.6419 22.582C38.7428 22.6988 39.7716 24.0733 39.8857 26.1885C40.0255 28.7847 39.1149 30.2065 38.9566 30.3894C38.7983 30.5723 36.3818 30.6066 36.3818 30.6066L35.965 22.4794V22.4794Z" fill="#858585"/>
<path d="M37.1442 29.288C37.1442 29.288 36.891 31.1905 34.4474 32.6326C31.1077 34.6041 27.2544 34.8345 22.4317 35.0762C17.7774 35.308 12.849 34.6164 12.849 34.6164L9.2918 29.033L37.1442 29.288Z" fill="#437687"/>
<path d="M30.792 31.3211L29.4628 30.7558L28.8559 31.6954C28.8559 31.6954 28.6047 32.5935 28.4175 33.2524C28.2304 33.9112 27.8736 34.659 27.8736 34.659L29.9107 34.3384C29.9107 34.3384 30.2276 33.4761 30.431 32.8229C30.6599 32.0865 30.792 31.3211 30.792 31.3211V31.3211Z" fill="#3F545F"/>
<path d="M11.942 21.8806C11.942 21.8806 15.2887 20.7277 21.3019 20.1271C26.7213 19.5852 31.2004 19.5849 33.843 20.9333C36.0547 22.0645 36.9556 23.261 37.2706 25.3142C37.6054 27.4857 37.1421 29.2904 37.1421 29.2904C37.1421 29.2904 36.3359 30.2512 29.867 31.5728C21.7946 33.2199 12.009 31.6667 12.009 31.6667L11.942 21.8806Z" fill="#8DAFBF"/>
<path d="M13.9904 32.0135C13.9904 32.0135 14.8746 29.2555 14.1134 26.0836C13.3583 22.9338 11.915 21.8825 11.915 21.8825C11.915 21.8825 9.94565 22.266 6.55216 24.0225C4.27032 25.2047 1.77538 27.3433 1.67477 28.6706C1.57416 29.9979 5.75908 31.2373 5.75908 31.2373L12.7104 32.9137L13.9904 32.0135Z" fill="#D83F22"/>
<path d="M30.7714 31.379C30.7714 31.379 31.3893 28.8703 31.084 26.6697C30.5111 22.5116 28.2676 19.8122 28.2676 19.8122L26.1227 19.7953C26.1227 19.7953 28.6778 22.4656 29.1386 26.7919C29.4389 29.6112 28.8335 31.7602 28.8335 31.7602C28.8335 31.7602 29.3555 31.6774 29.8891 31.5667C30.2316 31.4969 30.7714 31.379 30.7714 31.379V31.379Z" fill="#6896A5"/>
<path d="M12.8489 34.6163C12.8489 34.6163 10.6862 34.5715 6.99263 33.1048C1.84039 31.0618 1.68335 28.8211 1.68335 28.8211C1.68335 28.8211 3.91741 30.0433 7.75619 30.8948C10.8335 31.5755 14.0159 31.9304 14.0159 31.9304C14.0159 31.9304 13.7012 32.9799 13.4651 33.4911C13.1685 34.1352 12.8489 34.6163 12.8489 34.6163Z" fill="#A02422"/>
<path d="M34.0939 22.3165C34.1215 22.8876 33.3983 23.091 32.398 22.7682C31.3955 22.4479 30.9906 22.0889 31.0256 21.6983C31.0673 21.2124 31.9747 21.1222 32.5854 21.2677C33.2606 21.4311 34.0718 21.8848 34.0939 22.3165ZM12.771 22.8633C12.771 22.8633 15.6726 22.1712 19.1545 21.7667C22.3501 21.3964 24.6643 21.3198 25.1044 21.4144C25.5744 21.5182 26.029 21.9074 26.1434 22.2421C26.2578 22.5769 26.1198 22.9795 25.6823 23.0764C25.2423 23.1713 21.4236 23.2549 18.3786 23.6798C15.5927 24.0679 13.6361 24.534 13.6361 24.534C13.6361 24.534 12.3172 24.268 12.1858 24.0112C12.0521 23.7523 12.771 22.8633 12.771 22.8633V22.8633Z" fill="#B3E1EE"/>
<path d="M12.771 22.8633C12.771 22.8633 10.563 23.3181 8.55903 24.1599C6.69513 24.9419 4.9506 25.8146 5.2291 26.485C5.49395 27.1225 7.44992 26.1466 9.46901 25.5452C11.4881 24.9438 13.6295 24.5367 13.6295 24.5367C13.6295 24.5367 13.4393 24.0269 13.2152 23.6098C13.0816 23.3526 12.9332 23.1034 12.771 22.8633V22.8633Z" fill="#ED6A65"/>
<path d="M16.4061 27.9627C16.3317 25.5536 18.2781 23.9758 20.1713 24.0063C22.1189 24.0419 23.7865 25.6073 23.8618 27.6214C23.9283 29.4512 22.5115 31.521 20.2047 31.5113C18.1554 31.5056 16.4647 29.9329 16.4061 27.9627V27.9627Z" fill="#E1E1E1"/>
<path d="M20.007 25.0765C21.4786 24.9568 22.991 26.3416 22.8779 27.9022C22.7799 29.2654 21.7321 30.4128 20.3414 30.4973C18.9507 30.5818 17.5813 29.3966 17.4716 28.0935C17.3479 26.5973 18.3222 25.2137 20.007 25.0765V25.0765Z" fill="#3F545F"/>
<path d="M33.7114 26.2749C33.7114 26.2749 30.9106 26.4565 30.9326 26.7618C30.9546 27.0671 31.8903 27.8391 33.5273 28.0099C35.1664 28.1783 38.3436 28.1793 40.6455 27.9953C42.9136 27.8115 45.7903 27.2746 45.9079 27.0901C45.999 26.9459 46.1894 26.2056 46.1182 25.782C46.0453 25.3653 44.3504 24.9549 43.7525 24.8627C43.1526 24.7728 33.7114 26.2749 33.7114 26.2749Z" fill="#A02524"/>
<path d="M45.7112 24.5499C46.0744 24.8306 46.1216 25.7975 46.1216 25.7975L30.935 26.7639C30.935 26.7639 30.8361 26.0174 32.4891 25.5033C34.1577 24.9858 35.8451 24.7288 38.5022 24.4943C42.2088 24.1706 45.348 24.2692 45.7112 24.5499V24.5499Z" fill="#CA2C31"/>
</svg>
